<?xml version="1.0" encoding="utf-8"?>
<!-- Generator: Adobe Illustrator 26.1.0, SVG Export Plug-In . SVG Version: 6.00 Build 0)  -->
<svg version="1.1" id="Capa_1" xmlns="http://www.w3.org/2000/svg" xmlns:xlink="http://www.w3.org/1999/xlink" x="0px" y="0px"
	 viewBox="0 0 24 24" style="enable-background:new 0 0 24 24;" xml:space="preserve">
<style type="text/css">
	.st0{fill:#4A99E9;}
</style>
<g>
	<path class="st0" d="M20.2,9.2h-1.3c0-0.1,0-0.2,0-0.3V6.6c0-1-0.8-1.8-1.8-1.8H3.5V3.4c0-0.4-0.3-0.8-0.8-0.8S2,2.9,2,3.4v17.5
		c0,0.4,0.3,0.8,0.8,0.8s0.8-0.3,0.8-0.8v-1.4h10.6c1,0,1.8-0.8,1.8-1.8v-2.3c0-0.1,0-0.2,0-0.3h4.4c1,0,1.8-0.8,1.8-1.8v-2.3
		C22,10,21.2,9.2,20.2,9.2L20.2,9.2z M17.1,6.3c0.2,0,0.3,0.1,0.3,0.3v2.3c0,0.2-0.1,0.3-0.3,0.3H3.5V6.3L17.1,6.3L17.1,6.3z
		 M14.3,15.3v2.3c0,0.2-0.1,0.3-0.3,0.3H3.5V15h10.6C14.2,15,14.3,15.2,14.3,15.3L14.3,15.3z M20.5,13.2c0,0.2-0.1,0.3-0.3,0.3H3.5
		v-2.9h16.7c0.2,0,0.3,0.1,0.3,0.3V13.2z"/>
</g>
</svg>
