<?xml version="1.0" encoding="utf-8"?>
<!-- Generator: Adobe Illustrator 26.1.0, SVG Export Plug-In . SVG Version: 6.00 Build 0)  -->
<svg version="1.1" xmlns="http://www.w3.org/2000/svg" xmlns:xlink="http://www.w3.org/1999/xlink" x="0px" y="0px"
	 viewBox="0 0 410 404" style="enable-background:new 0 0 410 404;" xml:space="preserve">
<style type="text/css">
	.st0{display:none;}
	.st1{display:inline;fill:url(#SVGID_1_);}
	.st2{display:inline;fill:url(#SVGID_00000160172023902905760320000015669427938510746764_);}
	.st3{fill:#4A99E9;}
</style>
<g id="Capa_1" class="st0">
	
		<linearGradient id="SVGID_1_" gradientUnits="userSpaceOnUse" x1="107.0513" y1="447.4075" x2="336.0511" y2="136.4074" gradientTransform="matrix(1 0 0 -1 0 406)">
		<stop  offset="0" style="stop-color:#41D1FF"/>
		<stop  offset="1" style="stop-color:#BD34FE"/>
	</linearGradient>
	<path class="st1" d="M399.6,59.5l-184,329c-3.8,6.8-13.6,6.8-17.4,0.1L10.6,59.6C6.4,52.2,12.7,43.3,21,44.8l184.2,32.9
		c1.2,0.2,2.4,0.2,3.6,0l180.3-32.9C397.4,43.3,403.8,52.1,399.6,59.5z"/>
	
		<linearGradient id="SVGID_00000000214589832458798380000017811218743830636688_" gradientUnits="userSpaceOnUse" x1="215.0368" y1="400.1536" x2="256.4618" y2="115.9827" gradientTransform="matrix(1 0 0 -1 0 406)">
		<stop  offset="0" style="stop-color:#FFEA83"/>
		<stop  offset="8.333330e-02" style="stop-color:#FFDD35"/>
		<stop  offset="1" style="stop-color:#FFA800"/>
	</linearGradient>
	<path style="display:inline;fill:url(#SVGID_00000000214589832458798380000017811218743830636688_);" d="M293,1.6L156.8,28.3
		c-2.2,0.4-3.9,2.3-4,4.6l-8.4,141.5c-0.2,3.3,2.9,5.9,6.1,5.2l37.9-8.7c3.5-0.8,6.8,2.3,6,5.9l-11.3,55.2c-0.8,3.7,2.7,6.9,6.4,5.8
		l23.4-7.1c3.6-1.1,7.1,2.1,6.3,5.8l-17.9,86.6c-1.1,5.4,6.1,8.4,9.1,3.7l2-3.1l111-221.4c1.9-3.7-1.3-7.9-5.4-7.1l-39,7.5
		c-3.7,0.7-6.8-2.7-5.8-6.3l25.5-88.3C299.8,4.3,296.6,0.9,293,1.6z"/>
</g>
<g id="Capa_2">
	<path class="st3" d="M14,320.5c14.1-6.2,29.2-10.4,45-12.3c-16.2,9.7-28.6,25.1-34.5,43.4c15.1-9,31.9-15.5,49.8-19
		c14.3,15.2,34.7,24.8,57.2,24.8c50.6,0,87.8-47.2,76.4-96.2c65.1,3.3,122.9,34.5,161.5,81.9c20.5-35.2,10.6-81.3-24.2-104.6
		c12.8,0.4,24.9,3.9,35.5,9.8c0.9-36.3-25.2-70.3-62.9-77.8c11-3,23.1-3.7,35.4-1.3c-10-31.1-38.9-53.8-73.2-54.4
		c32.9-25.8,74.5-37.4,116-32.5c-34.7-22.2-75.9-35.2-120.1-35.2c-145.5,0-227.7,122.9-222.8,233.1C37.8,291,24.5,304.8,14,320.5z"
		/>
</g>
</svg>
