<?xml version="1.0" encoding="utf-8"?>
<!-- Generator: Adobe Illustrator 26.1.0, SVG Export Plug-In . SVG Version: 6.00 Build 0)  -->
<svg version="1.1" id="Capa_1" xmlns="http://www.w3.org/2000/svg" xmlns:xlink="http://www.w3.org/1999/xlink" x="0px" y="0px"
	 viewBox="0 0 24 24" style="enable-background:new 0 0 24 24;" xml:space="preserve">
<style type="text/css">
	.st0{fill:#B8B8B8;}
</style>
<g>
	<path class="st0" d="M19.8,22H4.2C3,22,2,21,2,19.8V4.2C2,3,3,2,4.2,2h15.5C21,2,22,3,22,4.2v15.5C22,21,21,22,19.8,22z M4.2,3.5
		c-0.4,0-0.8,0.3-0.8,0.8v15.5c0,0.4,0.3,0.8,0.8,0.8h15.5c0.4,0,0.8-0.3,0.8-0.8V4.2c0-0.4-0.3-0.8-0.8-0.8H4.2V3.5z"/>
	<path class="st0" d="M17,8.6H7c-0.4,0-0.8-0.3-0.8-0.8S6.6,7.1,7,7.1h10c0.4,0,0.8,0.3,0.8,0.8S17.4,8.6,17,8.6z M17,12.8H7
		c-0.4,0-0.8-0.3-0.8-0.8s0.3-0.8,0.8-0.8h10c0.4,0,0.8,0.3,0.8,0.8S17.4,12.8,17,12.8z M12,16.9H7c-0.4,0-0.8-0.3-0.8-0.8
		s0.3-0.8,0.8-0.8h5c0.4,0,0.8,0.3,0.8,0.8S12.4,16.9,12,16.9z"/>
</g>
</svg>
