<?xml version="1.0" encoding="utf-8"?>
<!-- Generator: Adobe Illustrator 26.1.0, SVG Export Plug-In . SVG Version: 6.00 Build 0)  -->
<svg version="1.1" id="Capa_1" xmlns="http://www.w3.org/2000/svg" xmlns:xlink="http://www.w3.org/1999/xlink" x="0px" y="0px"
	 viewBox="0 0 24 24" style="enable-background:new 0 0 24 24;" xml:space="preserve">
<style type="text/css">
	.st0{fill:#B8B8B8;}
</style>
<g>
	<path class="st0" d="M19.9,23.5c-0.2,0-0.3,0-0.4-0.1L12,17.9l-7.5,5.4c-0.2,0.2-0.5,0.2-0.8,0.1c-0.2-0.1-0.4-0.4-0.4-0.7V5.6
		c0-1.2,1-2.2,2.2-2.2h12.8c1.2,0,2.2,1,2.2,2.2v17.1c0,0.3-0.2,0.5-0.4,0.7C20.1,23.5,20,23.5,19.9,23.5L19.9,23.5z M12,16.2
		c0.2,0,0.3,0,0.4,0.1l6.7,4.9V5.6c0-0.4-0.3-0.8-0.8-0.8H5.6c-0.4,0-0.8,0.3-0.8,0.8v15.7l6.7-4.9C11.7,16.3,11.8,16.3,12,16.2z"/>
</g>
</svg>
